ply
format ascii 1.0
comment Created by Blender 2.79 (sub 0) - www.blender.org, source file: ''
element vertex 66
property float x
property float y
property float z
property float nx
property float ny
property float nz
property float s
property float t
element face 44
property list uchar uint vertex_indices
end_header
0.000000 -1.000000 1.000000 0.000000 0.000000 0.999969 1.000000 0.500000
0.000000 1.000000 1.000000 0.000000 0.000000 0.999969 1.000000 1.000000
-0.382683 1.000000 0.923880 -0.382672 0.000000 0.923856 0.937500 1.000000
-0.382683 -1.000000 0.923880 -0.382672 0.000000 0.923856 0.937500 0.500000
-0.707107 1.000000 0.707107 -0.707083 0.000000 0.707083 0.875000 1.000000
-0.707107 -1.000000 0.707107 -0.707083 0.000000 0.707083 0.875000 0.500000
-0.923880 1.000000 0.382683 -0.923856 0.000000 0.382672 0.812500 1.000000
-0.923880 -1.000000 0.382683 -0.923856 0.000000 0.382672 0.812500 0.500000
-1.000000 1.000000 -0.000000 -1.000000 0.000000 0.000000 0.750000 1.000000
-1.000000 -1.000000 -0.000000 -1.000000 0.000000 0.000000 0.750000 0.500000
-0.923880 1.000000 -0.382684 -0.923856 0.000000 -0.382672 0.687500 1.000000
-0.923880 -1.000000 -0.382684 -0.923856 0.000000 -0.382672 0.687500 0.500000
-0.707107 1.000000 -0.707107 -0.707083 0.000000 -0.707083 0.625000 1.000000
-0.707107 -1.000000 -0.707107 -0.707083 0.000000 -0.707083 0.625000 0.500000
-0.382683 1.000000 -0.923880 -0.382672 0.000000 -0.923856 0.562500 1.000000
-0.382683 -1.000000 -0.923880 -0.382672 0.000000 -0.923856 0.562500 0.500000
-0.000000 1.000000 -1.000000 0.000000 0.000000 -1.000000 0.500000 1.000000
-0.000000 -1.000000 -1.000000 0.000000 0.000000 -1.000000 0.500000 0.500000
0.382683 1.000000 -0.923880 0.382672 0.000000 -0.923856 0.437500 1.000000
0.382683 -1.000000 -0.923880 0.382672 0.000000 -0.923856 0.437500 0.500000
0.707107 1.000000 -0.707107 0.707083 0.000000 -0.707083 0.375000 1.000000
0.707107 -1.000000 -0.707107 0.707083 0.000000 -0.707083 0.375000 0.500000
0.923880 1.000000 -0.382684 0.923856 0.000000 -0.382672 0.312500 1.000000
0.923880 -1.000000 -0.382684 0.923856 0.000000 -0.382672 0.312500 0.500000
1.000000 1.000000 0.000000 1.000000 0.000000 0.000000 0.250000 1.000000
1.000000 -1.000000 0.000000 1.000000 0.000000 0.000000 0.250000 0.500000
0.923879 1.000000 0.382684 0.923856 0.000000 0.382672 0.187500 1.000000
0.923879 -1.000000 0.382684 0.923856 0.000000 0.382672 0.187500 0.500000
0.707107 1.000000 0.707107 0.707083 0.000000 0.707083 0.125000 1.000000
0.707107 -1.000000 0.707107 0.707083 0.000000 0.707083 0.125000 0.500000
0.382683 1.000000 0.923880 0.382672 0.000000 0.923856 0.062500 1.000000
0.382683 -1.000000 0.923880 0.382672 0.000000 0.923856 0.062500 0.500000
0.000000 1.000000 1.000000 0.000000 0.000000 0.999969 0.000000 1.000000
0.000000 -1.000000 1.000000 0.000000 0.000000 0.999969 0.000000 0.500000
-0.707107 1.000000 0.707107 0.000000 1.000000 0.000000 0.419706 0.419706
-0.382683 1.000000 0.923880 0.000000 1.000000 0.000000 0.341844 0.471731
0.000000 1.000000 1.000000 0.000000 1.000000 0.000000 0.250000 0.490000
0.382683 1.000000 0.923880 0.000000 1.000000 0.000000 0.158156 0.471731
0.707107 1.000000 0.707107 0.000000 1.000000 0.000000 0.080294 0.419706
0.923879 1.000000 0.382684 0.000000 1.000000 0.000000 0.028269 0.341844
1.000000 1.000000 0.000000 0.000000 1.000000 0.000000 0.010000 0.250000
0.923880 1.000000 -0.382684 0.000000 1.000000 0.000000 0.028269 0.158156
0.707107 1.000000 -0.707107 0.000000 1.000000 0.000000 0.080294 0.080294
0.382683 1.000000 -0.923880 0.000000 1.000000 0.000000 0.158156 0.028269
-0.000000 1.000000 -1.000000 0.000000 1.000000 0.000000 0.250000 0.010000
-0.382683 1.000000 -0.923880 0.000000 1.000000 0.000000 0.341844 0.028269
-0.707107 1.000000 -0.707107 0.000000 1.000000 0.000000 0.419706 0.080294
-0.923880 1.000000 -0.382684 0.000000 1.000000 0.000000 0.471731 0.158156
-1.000000 1.000000 -0.000000 0.000000 1.000000 0.000000 0.490000 0.250000
-0.923880 1.000000 0.382683 0.000000 1.000000 0.000000 0.471731 0.341844
0.382683 -1.000000 0.923880 0.000000 -1.000000 0.000000 0.658156 0.471731
0.000000 -1.000000 1.000000 0.000000 -1.000000 0.000000 0.750000 0.490000
-0.382683 -1.000000 0.923880 0.000000 -1.000000 0.000000 0.841844 0.471731
-0.707107 -1.000000 0.707107 0.000000 -1.000000 0.000000 0.919706 0.419706
-0.923880 -1.000000 0.382683 0.000000 -1.000000 0.000000 0.971731 0.341844
-1.000000 -1.000000 -0.000000 0.000000 -1.000000 0.000000 0.990000 0.250000
-0.923880 -1.000000 -0.382684 0.000000 -1.000000 0.000000 0.971731 0.158156
-0.707107 -1.000000 -0.707107 0.000000 -1.000000 0.000000 0.919706 0.080294
-0.382683 -1.000000 -0.923880 0.000000 -1.000000 0.000000 0.841844 0.028269
-0.000000 -1.000000 -1.000000 -0.000000 -1.000000 0.000000 0.750000 0.010000
0.382683 -1.000000 -0.923880 -0.000000 -1.000000 0.000000 0.658156 0.028269
0.707107 -1.000000 -0.707107 0.000000 -1.000000 0.000000 0.580294 0.080294
0.923880 -1.000000 -0.382684 0.000000 -1.000000 0.000000 0.528269 0.158156
1.000000 -1.000000 0.000000 0.000000 -1.000000 -0.000000 0.510000 0.250000
0.923879 -1.000000 0.382684 0.000000 -1.000000 -0.000000 0.528269 0.341844
0.707107 -1.000000 0.707107 0.000000 -1.000000 0.000000 0.580294 0.419706
4 0 1 2 3
4 3 2 4 5
4 5 4 6 7
4 7 6 8 9
4 9 8 10 11
4 11 10 12 13
4 13 12 14 15
4 15 14 16 17
4 17 16 18 19
4 19 18 20 21
4 21 20 22 23
4 23 22 24 25
4 25 24 26 27
4 27 26 28 29
4 29 28 30 31
4 32 33 31 30
3 34 35 36
3 36 37 38
3 38 39 40
3 40 41 42
3 42 43 44
3 44 45 46
3 46 47 48
3 48 49 34
3 34 36 38
3 38 40 42
3 42 44 46
3 46 48 34
3 34 38 42
3 42 46 34
3 50 51 52
3 52 53 54
3 54 55 56
3 56 57 58
3 58 59 60
3 60 61 62
3 62 63 64
3 64 65 50
3 50 52 54
3 54 56 58
3 58 60 62
3 62 64 50
3 50 54 58
3 58 62 50
