ply
format ascii 1.0
comment Created by Blender 2.79 (sub 0) - www.blender.org, source file: 'shapes.blend'
element vertex 98
property float x
property float y
property float z
property float nx
property float ny
property float nz
property float s
property float t
element face 68
property list uchar uint vertex_indices
end_header
0.000000 -0.500000 0.500000 0.000000 0.000000 1.000000 1.000000 0.500000
0.000000 0.500000 0.500000 0.000000 0.000000 1.000000 1.000000 1.000000
-0.129410 0.500000 0.482963 -0.258797 0.000000 0.965911 0.958333 1.000000
-0.129410 -0.500000 0.482963 -0.258797 0.000000 0.965911 0.958333 0.500000
-0.250000 0.500000 0.433013 -0.499985 0.000000 0.866024 0.916667 1.000000
-0.250000 -0.500000 0.433013 -0.499985 0.000000 0.866024 0.916667 0.500000
-0.353553 0.500000 0.353553 -0.707083 0.000000 0.707083 0.875000 1.000000
-0.353553 -0.500000 0.353553 -0.707083 0.000000 0.707083 0.875000 0.500000
-0.433013 0.500000 0.250000 -0.866024 0.000000 0.499985 0.833333 1.000000
-0.433013 -0.500000 0.250000 -0.866024 0.000000 0.499985 0.833333 0.500000
-0.482963 0.500000 0.129410 -0.965911 0.000000 0.258797 0.791667 1.000000
-0.482963 -0.500000 0.129410 -0.965911 0.000000 0.258797 0.791667 0.500000
-0.500000 0.500000 0.000000 -1.000000 0.000000 0.000000 0.750000 1.000000
-0.500000 -0.500000 0.000000 -1.000000 0.000000 0.000000 0.750000 0.500000
-0.482963 0.500000 -0.129409 -0.965911 0.000000 -0.258797 0.708333 1.000000
-0.482963 -0.500000 -0.129409 -0.965911 0.000000 -0.258797 0.708333 0.500000
-0.433013 0.500000 -0.250000 -0.866024 0.000000 -0.499985 0.666667 1.000000
-0.433013 -0.500000 -0.250000 -0.866024 0.000000 -0.499985 0.666667 0.500000
-0.353553 0.500000 -0.353553 -0.707083 0.000000 -0.707083 0.625000 1.000000
-0.353553 -0.500000 -0.353553 -0.707083 0.000000 -0.707083 0.625000 0.500000
-0.250000 0.500000 -0.433013 -0.499985 0.000000 -0.866024 0.583333 1.000000
-0.250000 -0.500000 -0.433013 -0.499985 0.000000 -0.866024 0.583333 0.500000
-0.129410 0.500000 -0.482963 -0.258797 0.000000 -0.965911 0.541666 1.000000
-0.129410 -0.500000 -0.482963 -0.258797 0.000000 -0.965911 0.541666 0.500000
-0.000000 0.500000 -0.500000 0.000000 0.000000 -1.000000 0.500000 1.000000
-0.000000 -0.500000 -0.500000 0.000000 0.000000 -1.000000 0.500000 0.500000
0.129409 0.500000 -0.482963 0.258797 0.000000 -0.965911 0.458333 1.000000
0.129409 -0.500000 -0.482963 0.258797 0.000000 -0.965911 0.458333 0.500000
0.250000 0.500000 -0.433013 0.499985 0.000000 -0.866024 0.416666 1.000000
0.250000 -0.500000 -0.433013 0.499985 0.000000 -0.866024 0.416666 0.500000
0.353553 0.500000 -0.353554 0.707083 0.000000 -0.707083 0.375000 1.000000
0.353553 -0.500000 -0.353554 0.707083 0.000000 -0.707083 0.375000 0.500000
0.433013 0.500000 -0.250000 0.866024 0.000000 -0.499985 0.333333 1.000000
0.433013 -0.500000 -0.250000 0.866024 0.000000 -0.499985 0.333333 0.500000
0.482963 0.500000 -0.129410 0.965911 0.000000 -0.258797 0.291667 1.000000
0.482963 -0.500000 -0.129410 0.965911 0.000000 -0.258797 0.291667 0.500000
0.500000 0.500000 -0.000000 1.000000 0.000000 0.000000 0.250000 1.000000
0.500000 -0.500000 -0.000000 1.000000 0.000000 0.000000 0.250000 0.500000
0.482963 0.500000 0.129409 0.965911 0.000000 0.258797 0.208333 1.000000
0.482963 -0.500000 0.129409 0.965911 0.000000 0.258797 0.208333 0.500000
0.433013 0.500000 0.250000 0.866024 0.000000 0.499985 0.166666 1.000000
0.433013 -0.500000 0.250000 0.866024 0.000000 0.499985 0.166666 0.500000
0.353554 0.500000 0.353553 0.707083 0.000000 0.707083 0.125000 1.000000
0.353554 -0.500000 0.353553 0.707083 0.000000 0.707083 0.125000 0.500000
0.250000 0.500000 0.433013 0.499985 0.000000 0.866024 0.083333 1.000000
0.250000 -0.500000 0.433013 0.499985 0.000000 0.866024 0.083333 0.500000
0.129410 0.500000 0.482963 0.258797 0.000000 0.965911 0.041666 1.000000
0.129410 -0.500000 0.482963 0.258797 0.000000 0.965911 0.041666 0.500000
0.000000 0.500000 0.500000 0.000000 0.000000 1.000000 -0.000000 1.000000
0.000000 -0.500000 0.500000 0.000000 0.000000 1.000000 -0.000000 0.500000
-0.250000 0.500000 0.433013 0.000000 1.000000 0.000000 0.370000 0.457846
-0.129410 0.500000 0.482963 0.000000 1.000000 0.000000 0.312117 0.481822
0.000000 0.500000 0.500000 0.000000 1.000000 0.000000 0.250000 0.490000
0.129410 0.500000 0.482963 0.000000 1.000000 0.000000 0.187883 0.481822
0.250000 0.500000 0.433013 0.000000 1.000000 0.000000 0.130000 0.457846
0.353554 0.500000 0.353553 0.000000 1.000000 0.000000 0.080294 0.419706
0.433013 0.500000 0.250000 0.000000 1.000000 0.000000 0.042154 0.370000
0.482963 0.500000 0.129409 0.000000 1.000000 0.000000 0.018178 0.312116
0.500000 0.500000 -0.000000 0.000000 1.000000 0.000000 0.010000 0.250000
0.482963 0.500000 -0.129410 0.000000 1.000000 0.000000 0.018178 0.187883
0.433013 0.500000 -0.250000 0.000000 1.000000 0.000000 0.042154 0.130000
0.353553 0.500000 -0.353554 0.000000 1.000000 0.000000 0.080294 0.080294
0.250000 0.500000 -0.433013 0.000000 1.000000 0.000000 0.130000 0.042154
0.129409 0.500000 -0.482963 0.000000 1.000000 0.000000 0.187884 0.018178
-0.000000 0.500000 -0.500000 0.000000 1.000000 0.000000 0.250000 0.010000
-0.129410 0.500000 -0.482963 0.000000 1.000000 0.000000 0.312117 0.018178
-0.250000 0.500000 -0.433013 0.000000 1.000000 0.000000 0.370000 0.042154
-0.353553 0.500000 -0.353553 0.000000 1.000000 0.000000 0.419706 0.080294
-0.433013 0.500000 -0.250000 0.000000 1.000000 0.000000 0.457846 0.130000
-0.482963 0.500000 -0.129409 0.000000 1.000000 0.000000 0.481822 0.187883
-0.500000 0.500000 0.000000 0.000000 1.000000 0.000000 0.490000 0.250000
-0.482963 0.500000 0.129410 0.000000 1.000000 0.000000 0.481822 0.312117
-0.433013 0.500000 0.250000 0.000000 1.000000 0.000000 0.457846 0.370000
-0.353553 0.500000 0.353553 0.000000 1.000000 0.000000 0.419706 0.419706
0.129410 -0.500000 0.482963 0.000000 -1.000000 0.000000 0.687883 0.481822
0.000000 -0.500000 0.500000 0.000000 -1.000000 0.000000 0.750000 0.490000
-0.129410 -0.500000 0.482963 0.000000 -1.000000 0.000000 0.812117 0.481822
-0.250000 -0.500000 0.433013 0.000000 -1.000000 0.000000 0.870000 0.457846
-0.353553 -0.500000 0.353553 0.000000 -1.000000 0.000000 0.919706 0.419706
-0.433013 -0.500000 0.250000 0.000000 -1.000000 0.000000 0.957846 0.370000
-0.482963 -0.500000 0.129410 0.000000 -1.000000 0.000000 0.981822 0.312117
-0.500000 -0.500000 0.000000 0.000000 -1.000000 0.000000 0.990000 0.250000
-0.482963 -0.500000 -0.129409 0.000000 -1.000000 0.000000 0.981822 0.187883
-0.433013 -0.500000 -0.250000 0.000000 -1.000000 0.000000 0.957846 0.130000
-0.353553 -0.500000 -0.353553 0.000000 -1.000000 0.000000 0.919706 0.080294
-0.250000 -0.500000 -0.433013 0.000000 -1.000000 0.000000 0.870000 0.042154
-0.129410 -0.500000 -0.482963 0.000000 -1.000000 0.000000 0.812117 0.018178
-0.000000 -0.500000 -0.500000 -0.000000 -1.000000 0.000000 0.750000 0.010000
0.129409 -0.500000 -0.482963 -0.000000 -1.000000 0.000000 0.687884 0.018178
0.250000 -0.500000 -0.433013 0.000000 -1.000000 0.000000 0.630000 0.042154
0.353553 -0.500000 -0.353554 0.000000 -1.000000 0.000000 0.580294 0.080294
0.433013 -0.500000 -0.250000 0.000000 -1.000000 0.000000 0.542154 0.130000
0.482963 -0.500000 -0.129410 0.000000 -1.000000 0.000000 0.518178 0.187883
0.500000 -0.500000 -0.000000 0.000000 -1.000000 -0.000000 0.510000 0.250000
0.482963 -0.500000 0.129409 0.000000 -1.000000 -0.000000 0.518178 0.312116
0.433013 -0.500000 0.250000 0.000000 -1.000000 0.000000 0.542154 0.370000
0.353554 -0.500000 0.353553 0.000000 -1.000000 0.000000 0.580294 0.419706
0.250000 -0.500000 0.433013 0.000000 -1.000000 0.000000 0.630000 0.457846
4 0 1 2 3
4 3 2 4 5
4 5 4 6 7
4 7 6 8 9
4 9 8 10 11
4 11 10 12 13
4 13 12 14 15
4 15 14 16 17
4 17 16 18 19
4 19 18 20 21
4 21 20 22 23
4 23 22 24 25
4 25 24 26 27
4 27 26 28 29
4 29 28 30 31
4 31 30 32 33
4 33 32 34 35
4 35 34 36 37
4 37 36 38 39
4 39 38 40 41
4 41 40 42 43
4 43 42 44 45
4 45 44 46 47
4 48 49 47 46
3 50 51 52
3 52 53 54
3 54 55 56
3 56 57 58
3 58 59 60
3 60 61 62
3 62 63 64
3 64 65 66
3 66 67 68
3 68 69 70
3 70 71 72
3 72 73 50
3 50 52 54
3 54 56 58
3 58 60 62
3 62 64 66
3 66 68 70
3 70 72 50
3 50 54 58
3 58 62 66
3 66 70 50
3 58 66 50
3 74 75 76
3 76 77 78
3 78 79 80
3 80 81 82
3 82 83 84
3 84 85 86
3 86 87 88
3 88 89 90
3 90 91 92
3 92 93 94
3 94 95 96
3 96 97 74
3 74 76 78
3 78 80 82
3 82 84 86
3 86 88 90
3 90 92 94
3 94 96 74
3 74 78 82
3 82 86 90
3 90 94 74
3 82 90 74
