ply
format ascii 1.0
comment Created by Blender 2.79 (sub 0) - www.blender.org, source file: 'shapes.blend'
element vertex 485
property float x
property float y
property float z
property float nx
property float ny
property float nz
property float s
property float t
element face 432
property list uchar uint vertex_indices
end_header
-0.625000 0.000000 0.000000 -0.999969 0.000000 0.000000 0.500000 0.500000
-0.615505 0.000000 0.108530 -0.984802 0.000000 0.173620 0.527778 0.500000
-0.599012 0.062500 0.105622 -0.856319 0.493851 0.150975 0.527778 0.583333
-0.608253 0.062500 0.000000 -0.869503 0.493851 0.000000 0.500000 0.583333
-0.553954 0.108253 0.097677 -0.502853 0.859798 0.088656 0.527778 0.666667
-0.562500 0.108253 0.000000 -0.510605 0.859798 0.000000 0.500000 0.666667
-0.492404 0.125000 0.086824 -0.014130 0.999878 0.002472 0.527778 0.750000
-0.500000 0.125000 0.000000 -0.014374 0.999878 0.000000 0.500000 0.750000
-0.430853 0.108253 0.075971 0.481613 0.872219 -0.084902 0.527778 0.833333
-0.437500 0.108253 0.000000 0.489059 0.872219 0.000000 0.500000 0.833333
-0.385795 0.062500 0.068026 0.849239 0.506302 -0.149724 0.527778 0.916667
-0.391747 0.062500 0.000000 0.862331 0.506302 0.000000 0.500000 0.916667
-0.369303 0.000000 0.065118 0.984802 0.000000 -0.173620 0.527778 1.000000
-0.375000 0.000000 0.000000 1.000000 0.000000 0.000000 0.500000 1.000000
-0.375000 0.000000 0.000000 1.000000 0.000000 0.000000 0.500000 0.000000
-0.369303 0.000000 0.065118 0.984802 0.000000 -0.173620 0.527778 0.000000
-0.385795 -0.062500 0.068026 0.849239 -0.506302 -0.149724 0.527778 0.083333
-0.391747 -0.062500 0.000000 0.862331 -0.506302 0.000000 0.500000 0.083333
-0.430853 -0.108253 0.075971 0.481613 -0.872219 -0.084902 0.527778 0.166667
-0.437500 -0.108253 0.000000 0.489059 -0.872219 0.000000 0.500000 0.166667
-0.492404 -0.125000 0.086824 -0.014130 -0.999878 0.002472 0.527778 0.250000
-0.500000 -0.125000 0.000000 -0.014374 -0.999878 0.000000 0.500000 0.250000
-0.553954 -0.108253 0.097677 -0.502853 -0.859798 0.088656 0.527778 0.333333
-0.562500 -0.108253 0.000000 -0.510605 -0.859798 0.000000 0.500000 0.333333
-0.599012 -0.062500 0.105622 -0.856319 -0.493851 0.150975 0.527778 0.416667
-0.608253 -0.062500 0.000000 -0.869503 -0.493851 0.000000 0.500000 0.416667
-0.615505 0.000000 0.108530 -0.984802 0.000000 0.173620 0.527778 0.416667
-0.625000 0.000000 0.000000 -0.999969 0.000000 0.000000 0.527778 0.500000
-0.608253 -0.062500 0.000000 -0.869503 -0.493851 0.000000 0.500000 0.500000
-0.599012 -0.062500 0.105622 -0.856319 -0.493851 0.150975 0.500000 0.416667
-0.587308 0.000000 0.213763 -0.939665 0.000000 0.341990 0.555556 0.500000
-0.571571 0.062500 0.208035 -0.817072 0.493851 0.297372 0.555556 0.583333
-0.528577 0.108253 0.192386 -0.479812 0.859798 0.174627 0.555556 0.666667
-0.469846 0.125000 0.171010 -0.013489 0.999878 0.004913 0.555556 0.750000
-0.411116 0.108253 0.149634 0.459548 0.872219 -0.167241 0.555556 0.833333
-0.368122 0.062500 0.133985 0.810327 0.506302 -0.294931 0.555556 0.916667
-0.352385 0.000000 0.128258 0.939665 0.000000 -0.341990 0.555556 1.000000
-0.352385 0.000000 0.128258 0.939665 0.000000 -0.341990 0.555556 0.000000
-0.368122 -0.062500 0.133985 0.810327 -0.506302 -0.294931 0.555556 0.083333
-0.411116 -0.108253 0.149634 0.459548 -0.872219 -0.167241 0.555556 0.166667
-0.469846 -0.125000 0.171010 -0.013489 -0.999878 0.004913 0.555556 0.250000
-0.528577 -0.108253 0.192386 -0.479812 -0.859798 0.174627 0.555556 0.333333
-0.571571 -0.062500 0.208035 -0.817072 -0.493851 0.297372 0.555556 0.416667
-0.541266 0.000000 0.312500 -0.866024 0.000000 0.499985 0.583333 0.500000
-0.526763 0.062500 0.304127 -0.753014 0.493851 0.434736 0.583333 0.583333
-0.487139 0.108253 0.281250 -0.442213 0.859798 0.255287 0.583333 0.666667
-0.433013 0.125000 0.250000 -0.012421 0.999878 0.007172 0.583333 0.750000
-0.378886 0.108253 0.218750 0.423536 0.872219 -0.244514 0.583333 0.833333
-0.339263 0.062500 0.195873 0.746788 0.506302 -0.431166 0.583333 0.916667
-0.324759 0.000000 0.187500 0.866024 0.000000 -0.499985 0.583333 1.000000
-0.324759 0.000000 0.187500 0.866024 0.000000 -0.499985 0.583333 0.000000
-0.339263 -0.062500 0.195873 0.746788 -0.506302 -0.431166 0.583333 0.083333
-0.378886 -0.108253 0.218750 0.423536 -0.872219 -0.244514 0.583333 0.166667
-0.433013 -0.125000 0.250000 -0.012421 -0.999878 0.007172 0.583333 0.250000
-0.487139 -0.108253 0.281250 -0.442213 -0.859798 0.255287 0.583333 0.333333
-0.526763 -0.062500 0.304127 -0.753014 -0.493851 0.434736 0.583333 0.416667
-0.478778 0.000000 0.401742 -0.766015 0.000000 0.642781 0.611111 0.500000
-0.465949 0.062500 0.390978 -0.666097 0.493851 0.558916 0.611111 0.583333
-0.430900 0.108253 0.361568 -0.391156 0.859798 0.328196 0.611111 0.666667
-0.383022 0.125000 0.321394 -0.010987 0.999878 0.009217 0.611111 0.750000
-0.335144 0.108253 0.281220 0.374645 0.872219 -0.314341 0.611111 0.833333
-0.300095 0.062500 0.251810 0.660573 0.506302 -0.554277 0.611111 0.916667
-0.287267 0.000000 0.241045 0.766015 0.000000 -0.642781 0.611111 1.000000
-0.287267 0.000000 0.241045 0.766015 0.000000 -0.642781 0.611111 0.000000
-0.300095 -0.062500 0.251810 0.660573 -0.506302 -0.554277 0.611111 0.083333
-0.335144 -0.108253 0.281220 0.374645 -0.872219 -0.314341 0.611111 0.166667
-0.383022 -0.125000 0.321394 -0.010987 -0.999878 0.009217 0.611111 0.250000
-0.430900 -0.108253 0.361568 -0.391156 -0.859798 0.328196 0.611111 0.333333
-0.465949 -0.062500 0.390978 -0.666097 -0.493851 0.558916 0.611111 0.416667
-0.401742 0.000000 0.478778 -0.642781 0.000000 0.766015 0.638889 0.500000
-0.390978 0.062500 0.465949 -0.558916 0.493851 0.666097 0.638889 0.583333
-0.361568 0.108253 0.430900 -0.328196 0.859798 0.391156 0.638889 0.666667
-0.321394 0.125000 0.383022 -0.009217 0.999878 0.010987 0.638889 0.750000
-0.281220 0.108253 0.335144 0.314341 0.872219 -0.374645 0.638889 0.833333
-0.251810 0.062500 0.300095 0.554277 0.506302 -0.660573 0.638889 0.916667
-0.241045 0.000000 0.287267 0.642781 0.000000 -0.766015 0.638889 1.000000
-0.241045 0.000000 0.287267 0.642781 0.000000 -0.766015 0.638889 0.000000
-0.251810 -0.062500 0.300095 0.554277 -0.506302 -0.660573 0.638889 0.083333
-0.281220 -0.108253 0.335144 0.314341 -0.872219 -0.374645 0.638889 0.166667
-0.321394 -0.125000 0.383022 -0.009217 -0.999878 0.010987 0.638889 0.250000
-0.361568 -0.108253 0.430900 -0.328196 -0.859798 0.391156 0.638889 0.333333
-0.390978 -0.062500 0.465949 -0.558916 -0.493851 0.666097 0.638889 0.416667
-0.312500 0.000000 0.541266 -0.499985 0.000000 0.866024 0.666667 0.500000
-0.304127 0.062500 0.526763 -0.434736 0.493851 0.753014 0.666667 0.583333
-0.281250 0.108253 0.487139 -0.255287 0.859798 0.442213 0.666667 0.666667
-0.250000 0.125000 0.433013 -0.007172 0.999878 0.012421 0.666667 0.750000
-0.218750 0.108253 0.378886 0.244514 0.872219 -0.423536 0.666667 0.833333
-0.195873 0.062500 0.339263 0.431166 0.506302 -0.746788 0.666667 0.916667
-0.187500 0.000000 0.324760 0.499985 0.000000 -0.866024 0.666667 1.000000
-0.187500 0.000000 0.324760 0.499985 0.000000 -0.866024 0.666667 0.000000
-0.195873 -0.062500 0.339263 0.431166 -0.506302 -0.746788 0.666667 0.083333
-0.218750 -0.108253 0.378886 0.244514 -0.872219 -0.423536 0.666667 0.166667
-0.250000 -0.125000 0.433013 -0.007172 -0.999878 0.012421 0.666667 0.250000
-0.281250 -0.108253 0.487139 -0.255287 -0.859798 0.442213 0.666667 0.333333
-0.304127 -0.062500 0.526763 -0.434736 -0.493851 0.753014 0.666667 0.416667
-0.213763 0.000000 0.587308 -0.341990 0.000000 0.939665 0.694444 0.500000
-0.208035 0.062500 0.571571 -0.297372 0.493851 0.817072 0.694444 0.583333
-0.192386 0.108253 0.528577 -0.174627 0.859798 0.479812 0.694444 0.666667
-0.171010 0.125000 0.469846 -0.004913 0.999878 0.013489 0.694444 0.750000
-0.149634 0.108253 0.411116 0.167241 0.872219 -0.459548 0.694444 0.833333
-0.133985 0.062500 0.368122 0.294931 0.506302 -0.810327 0.694444 0.916667
-0.128258 0.000000 0.352385 0.341990 0.000000 -0.939665 0.694444 1.000000
-0.128258 0.000000 0.352385 0.341990 0.000000 -0.939665 0.694444 0.000000
-0.133985 -0.062500 0.368122 0.294931 -0.506302 -0.810327 0.694444 0.083333
-0.149634 -0.108253 0.411116 0.167241 -0.872219 -0.459548 0.694444 0.166667
-0.171010 -0.125000 0.469846 -0.004913 -0.999878 0.013489 0.694444 0.250000
-0.192386 -0.108253 0.528577 -0.174627 -0.859798 0.479812 0.694444 0.333333
-0.208035 -0.062500 0.571571 -0.297372 -0.493851 0.817072 0.694444 0.416667
-0.108530 0.000000 0.615505 -0.173620 0.000000 0.984802 0.722222 0.500000
-0.105622 0.062500 0.599012 -0.150975 0.493851 0.856319 0.722222 0.583333
-0.097677 0.108253 0.553954 -0.088656 0.859798 0.502853 0.722222 0.666667
-0.086824 0.125000 0.492404 -0.002472 0.999878 0.014130 0.722222 0.750000
-0.075971 0.108253 0.430853 0.084902 0.872219 -0.481613 0.722222 0.833333
-0.068026 0.062500 0.385795 0.149724 0.506302 -0.849239 0.722222 0.916667
-0.065118 0.000000 0.369303 0.173620 0.000000 -0.984802 0.722222 1.000000
-0.065118 0.000000 0.369303 0.173620 0.000000 -0.984802 0.722222 0.000000
-0.068026 -0.062500 0.385795 0.149724 -0.506302 -0.849239 0.722222 0.083333
-0.075971 -0.108253 0.430853 0.084902 -0.872219 -0.481613 0.722222 0.166667
-0.086824 -0.125000 0.492404 -0.002472 -0.999878 0.014130 0.722222 0.250000
-0.097677 -0.108253 0.553954 -0.088656 -0.859798 0.502853 0.722222 0.333333
-0.105622 -0.062500 0.599012 -0.150975 -0.493851 0.856319 0.722222 0.416667
-0.000000 0.000000 0.625000 0.000000 0.000000 0.999969 0.750000 0.500000
-0.000000 0.062500 0.608253 0.000000 0.493851 0.869503 0.750000 0.583333
-0.000000 0.108253 0.562500 0.000000 0.859798 0.510605 0.750000 0.666667
-0.000000 0.125000 0.500000 0.000000 0.999878 0.014374 0.750000 0.750000
-0.000000 0.108253 0.437500 0.000000 0.872219 -0.489059 0.750000 0.833333
-0.000000 0.062500 0.391747 0.000000 0.506302 -0.862331 0.750000 0.916667
-0.000000 0.000000 0.375000 0.000000 0.000000 -1.000000 0.750000 1.000000
-0.000000 0.000000 0.375000 0.000000 0.000000 -1.000000 0.750000 0.000000
-0.000000 -0.062500 0.391747 0.000000 -0.506302 -0.862331 0.750000 0.083333
-0.000000 -0.108253 0.437500 0.000000 -0.872219 -0.489059 0.750000 0.166667
-0.000000 -0.125000 0.500000 0.000000 -0.999878 0.014374 0.750000 0.250000
-0.000000 -0.108253 0.562500 0.000000 -0.859798 0.510605 0.750000 0.333333
-0.000000 -0.062500 0.608253 0.000000 -0.493851 0.869503 0.750000 0.416667
0.108530 0.000000 0.615505 0.173620 0.000000 0.984802 0.777778 0.500000
0.105622 0.062500 0.599012 0.150975 0.493851 0.856319 0.777778 0.583333
0.097677 0.108253 0.553954 0.088656 0.859798 0.502853 0.777778 0.666667
0.086824 0.125000 0.492404 0.002472 0.999878 0.014130 0.777778 0.750000
0.075971 0.108253 0.430853 -0.084902 0.872219 -0.481613 0.777778 0.833333
0.068026 0.062500 0.385795 -0.149724 0.506302 -0.849239 0.777778 0.916667
0.065118 0.000000 0.369303 -0.173620 0.000000 -0.984802 0.777778 1.000000
0.065118 0.000000 0.369303 -0.173620 0.000000 -0.984802 0.777778 0.000000
0.068026 -0.062500 0.385795 -0.149724 -0.506302 -0.849239 0.777778 0.083333
0.075971 -0.108253 0.430853 -0.084902 -0.872219 -0.481613 0.777778 0.166667
0.086824 -0.125000 0.492404 0.002472 -0.999878 0.014130 0.777778 0.250000
0.097677 -0.108253 0.553954 0.088656 -0.859798 0.502853 0.777778 0.333333
0.105622 -0.062500 0.599012 0.150975 -0.493851 0.856319 0.777778 0.416667
0.213763 0.000000 0.587308 0.341990 0.000000 0.939665 0.805556 0.500000
0.208035 0.062500 0.571571 0.297372 0.493851 0.817072 0.805556 0.583333
0.192386 0.108253 0.528577 0.174627 0.859798 0.479812 0.805556 0.666667
0.171010 0.125000 0.469846 0.004913 0.999878 0.013489 0.805556 0.750000
0.149634 0.108253 0.411116 -0.167241 0.872219 -0.459548 0.805556 0.833333
0.133985 0.062500 0.368122 -0.294931 0.506302 -0.810327 0.805556 0.916667
0.128257 0.000000 0.352385 -0.341990 0.000000 -0.939665 0.805556 1.000000
0.128257 0.000000 0.352385 -0.341990 0.000000 -0.939665 0.805556 0.000000
0.133985 -0.062500 0.368122 -0.294931 -0.506302 -0.810327 0.805556 0.083333
0.149634 -0.108253 0.411116 -0.167241 -0.872219 -0.459548 0.805556 0.166667
0.171010 -0.125000 0.469846 0.004913 -0.999878 0.013489 0.805556 0.250000
0.192386 -0.108253 0.528577 0.174627 -0.859798 0.479812 0.805556 0.333333
0.208035 -0.062500 0.571571 0.297372 -0.493851 0.817072 0.805556 0.416667
0.312500 0.000000 0.541266 0.499985 0.000000 0.866024 0.833333 0.500000
0.304127 0.062500 0.526763 0.434736 0.493851 0.753014 0.833333 0.583333
0.281250 0.108253 0.487139 0.255287 0.859798 0.442213 0.833333 0.666667
0.250000 0.125000 0.433013 0.007172 0.999878 0.012421 0.833333 0.750000
0.218750 0.108253 0.378886 -0.244514 0.872219 -0.423536 0.833333 0.833333
0.195873 0.062500 0.339263 -0.431166 0.506302 -0.746788 0.833333 0.916667
0.187500 0.000000 0.324760 -0.499985 0.000000 -0.866024 0.833333 1.000000
0.187500 0.000000 0.324760 -0.499985 0.000000 -0.866024 0.833333 0.000000
0.195873 -0.062500 0.339263 -0.431166 -0.506302 -0.746788 0.833333 0.083333
0.218750 -0.108253 0.378886 -0.244514 -0.872219 -0.423536 0.833333 0.166667
0.250000 -0.125000 0.433013 0.007172 -0.999878 0.012421 0.833333 0.250000
0.281250 -0.108253 0.487139 0.255287 -0.859798 0.442213 0.833333 0.333333
0.304127 -0.062500 0.526763 0.434736 -0.493851 0.753014 0.833333 0.416667
0.401742 0.000000 0.478778 0.642781 0.000000 0.766015 0.861111 0.500000
0.390978 0.062500 0.465949 0.558916 0.493851 0.666097 0.861111 0.583333
0.361568 0.108253 0.430900 0.328196 0.859798 0.391156 0.861111 0.666667
0.321394 0.125000 0.383022 0.009217 0.999878 0.010987 0.861111 0.750000
0.281220 0.108253 0.335144 -0.314341 0.872219 -0.374645 0.861111 0.833333
0.251810 0.062500 0.300096 -0.554277 0.506302 -0.660573 0.861111 0.916667
0.241045 0.000000 0.287267 -0.642781 0.000000 -0.766015 0.861111 1.000000
0.241045 0.000000 0.287267 -0.642781 0.000000 -0.766015 0.861111 0.000000
0.251810 -0.062500 0.300096 -0.554277 -0.506302 -0.660573 0.861111 0.083333
0.281220 -0.108253 0.335144 -0.314341 -0.872219 -0.374645 0.861111 0.166667
0.321394 -0.125000 0.383022 0.009217 -0.999878 0.010987 0.861111 0.250000
0.361568 -0.108253 0.430900 0.328196 -0.859798 0.391156 0.861111 0.333333
0.390978 -0.062500 0.465949 0.558916 -0.493851 0.666097 0.861111 0.416667
0.478778 0.000000 0.401742 0.766015 0.000000 0.642781 0.888889 0.500000
0.465949 0.062500 0.390978 0.666097 0.493851 0.558916 0.888889 0.583333
0.430900 0.108253 0.361568 0.391156 0.859798 0.328196 0.888889 0.666667
0.383022 0.125000 0.321394 0.010987 0.999878 0.009217 0.888889 0.750000
0.335144 0.108253 0.281220 -0.374645 0.872219 -0.314341 0.888889 0.833333
0.300095 0.062500 0.251810 -0.660573 0.506302 -0.554277 0.888889 0.916667
0.287267 0.000000 0.241045 -0.766015 0.000000 -0.642781 0.888889 1.000000
0.287267 0.000000 0.241045 -0.766015 0.000000 -0.642781 0.888889 0.000000
0.300095 -0.062500 0.251810 -0.660573 -0.506302 -0.554277 0.888889 0.083333
0.335144 -0.108253 0.281220 -0.374645 -0.872219 -0.314341 0.888889 0.166667
0.383022 -0.125000 0.321394 0.010987 -0.999878 0.009217 0.888889 0.250000
0.430900 -0.108253 0.361568 0.391156 -0.859798 0.328196 0.888889 0.333333
0.465949 -0.062500 0.390978 0.666097 -0.493851 0.558916 0.888889 0.416667
0.541266 0.000000 0.312500 0.866024 0.000000 0.499985 0.916667 0.500000
0.526763 0.062500 0.304127 0.753014 0.493851 0.434736 0.916667 0.583333
0.487139 0.108253 0.281250 0.442213 0.859798 0.255287 0.916667 0.666667
0.433013 0.125000 0.250000 0.012421 0.999878 0.007172 0.916667 0.750000
0.378886 0.108253 0.218750 -0.423536 0.872219 -0.244514 0.916667 0.833333
0.339263 0.062500 0.195873 -0.746788 0.506302 -0.431166 0.916667 0.916667
0.324759 0.000000 0.187500 -0.866024 0.000000 -0.499985 0.916667 1.000000
0.324759 0.000000 0.187500 -0.866024 0.000000 -0.499985 0.916667 0.000000
0.339263 -0.062500 0.195873 -0.746788 -0.506302 -0.431166 0.916667 0.083333
0.378886 -0.108253 0.218750 -0.423536 -0.872219 -0.244514 0.916667 0.166667
0.433013 -0.125000 0.250000 0.012421 -0.999878 0.007172 0.916667 0.250000
0.487139 -0.108253 0.281250 0.442213 -0.859798 0.255287 0.916667 0.333333
0.526763 -0.062500 0.304127 0.753014 -0.493851 0.434736 0.916667 0.416667
0.587308 0.000000 0.213763 0.939665 0.000000 0.341990 0.944444 0.500000
0.571571 0.062500 0.208035 0.817072 0.493851 0.297372 0.944444 0.583333
0.528577 0.108253 0.192387 0.479812 0.859798 0.174627 0.944444 0.666667
0.469846 0.125000 0.171010 0.013489 0.999878 0.004913 0.944444 0.750000
0.411115 0.108253 0.149634 -0.459548 0.872219 -0.167241 0.944444 0.833333
0.368122 0.062500 0.133985 -0.810327 0.506302 -0.294931 0.944444 0.916667
0.352385 0.000000 0.128258 -0.939665 0.000000 -0.341990 0.944444 1.000000
0.352385 0.000000 0.128258 -0.939665 0.000000 -0.341990 0.944444 0.000000
0.368122 -0.062500 0.133985 -0.810327 -0.506302 -0.294931 0.944444 0.083333
0.411115 -0.108253 0.149634 -0.459548 -0.872219 -0.167241 0.944444 0.166667
0.469846 -0.125000 0.171010 0.013489 -0.999878 0.004913 0.944444 0.250000
0.528577 -0.108253 0.192387 0.479812 -0.859798 0.174627 0.944444 0.333333
0.571571 -0.062500 0.208035 0.817072 -0.493851 0.297372 0.944444 0.416667
0.615505 0.000000 0.108530 0.984802 0.000000 0.173620 0.972222 0.500000
0.599012 0.062500 0.105622 0.856319 0.493851 0.150975 0.972222 0.583333
0.553954 0.108253 0.097677 0.502853 0.859798 0.088656 0.972222 0.666667
0.492404 0.125000 0.086824 0.014130 0.999878 0.002472 0.972222 0.750000
0.430853 0.108253 0.075971 -0.481613 0.872219 -0.084902 0.972222 0.833333
0.385795 0.062500 0.068026 -0.849239 0.506302 -0.149724 0.972222 0.916667
0.369303 0.000000 0.065118 -0.984802 0.000000 -0.173620 0.972222 1.000000
0.369303 0.000000 0.065118 -0.984802 0.000000 -0.173620 0.972222 0.000000
0.385795 -0.062500 0.068026 -0.849239 -0.506302 -0.149724 0.972222 0.083333
0.430853 -0.108253 0.075971 -0.481613 -0.872219 -0.084902 0.972222 0.166667
0.492404 -0.125000 0.086824 0.014130 -0.999878 0.002472 0.972222 0.250000
0.553954 -0.108253 0.097677 0.502853 -0.859798 0.088656 0.972222 0.333333
0.599012 -0.062500 0.105622 0.856319 -0.493851 0.150975 0.972222 0.416667
0.625000 0.000000 0.000000 0.999969 0.000000 0.000000 1.000000 0.500000
0.608253 0.062500 0.000000 0.869503 0.493851 0.000000 1.000000 0.583333
0.562500 0.108253 0.000000 0.510605 0.859798 0.000000 1.000000 0.666667
0.500000 0.125000 0.000000 0.014374 0.999878 0.000000 1.000000 0.750000
0.437500 0.108253 0.000000 -0.489059 0.872219 0.000000 1.000000 0.833333
0.391747 0.062500 0.000000 -0.862331 0.506302 0.000000 1.000000 0.916667
0.375000 0.000000 0.000000 -1.000000 0.000000 0.000000 1.000000 1.000000
0.375000 0.000000 0.000000 -1.000000 0.000000 0.000000 1.000000 0.000000
0.391747 -0.062500 0.000000 -0.862331 -0.506302 0.000000 1.000000 0.083333
0.437500 -0.108253 0.000000 -0.489059 -0.872219 0.000000 1.000000 0.166667
0.500000 -0.125000 0.000000 0.014374 -0.999878 0.000000 1.000000 0.250000
0.562500 -0.108253 0.000000 0.510605 -0.859798 0.000000 1.000000 0.333333
0.608253 -0.062500 0.000000 0.869503 -0.493851 0.000000 1.000000 0.416667
0.625000 0.000000 0.000000 0.999969 0.000000 0.000000 0.000000 0.500000
0.615505 0.000000 -0.108530 0.984802 0.000000 -0.173620 0.027778 0.500000
0.599012 0.062500 -0.105622 0.856319 0.493851 -0.150975 0.027778 0.583333
0.608253 0.062500 0.000000 0.869503 0.493851 0.000000 0.000000 0.583333
0.553954 0.108253 -0.097677 0.502853 0.859798 -0.088656 0.027778 0.666667
0.562500 0.108253 0.000000 0.510605 0.859798 0.000000 0.000000 0.666667
0.492404 0.125000 -0.086824 0.014130 0.999878 -0.002472 0.027778 0.750000
0.500000 0.125000 0.000000 0.014374 0.999878 0.000000 0.000000 0.750000
0.430853 0.108253 -0.075971 -0.481613 0.872219 0.084902 0.027778 0.833333
0.437500 0.108253 0.000000 -0.489059 0.872219 0.000000 0.000000 0.833333
0.385795 0.062500 -0.068026 -0.849239 0.506302 0.149724 0.027778 0.916667
0.391747 0.062500 0.000000 -0.862331 0.506302 0.000000 0.000000 0.916667
0.369303 0.000000 -0.065118 -0.984802 0.000000 0.173620 0.027778 1.000000
0.375000 0.000000 0.000000 -1.000000 0.000000 0.000000 0.000000 1.000000
0.375000 0.000000 0.000000 -1.000000 0.000000 0.000000 0.000000 0.000000
0.369303 0.000000 -0.065118 -0.984802 0.000000 0.173620 0.027778 0.000000
0.385795 -0.062500 -0.068026 -0.849239 -0.506302 0.149724 0.027778 0.083333
0.391747 -0.062500 0.000000 -0.862331 -0.506302 0.000000 0.000000 0.083333
0.430853 -0.108253 -0.075971 -0.481613 -0.872219 0.084902 0.027778 0.166667
0.437500 -0.108253 0.000000 -0.489059 -0.872219 0.000000 0.000000 0.166667
0.492404 -0.125000 -0.086824 0.014130 -0.999878 -0.002472 0.027778 0.250000
0.500000 -0.125000 0.000000 0.014374 -0.999878 0.000000 0.000000 0.250000
0.553954 -0.108253 -0.097677 0.502853 -0.859798 -0.088656 0.027778 0.333333
0.562500 -0.108253 0.000000 0.510605 -0.859798 0.000000 0.000000 0.333333
0.599012 -0.062500 -0.105622 0.856319 -0.493851 -0.150975 0.027778 0.416667
0.608253 -0.062500 0.000000 0.869503 -0.493851 0.000000 0.000000 0.416667
0.587308 0.000000 -0.213763 0.939665 0.000000 -0.341990 0.055556 0.500000
0.571571 0.062500 -0.208035 0.817072 0.493851 -0.297372 0.055556 0.583333
0.528577 0.108253 -0.192386 0.479812 0.859798 -0.174627 0.055556 0.666667
0.469846 0.125000 -0.171010 0.013489 0.999878 -0.004913 0.055556 0.750000
0.411116 0.108253 -0.149634 -0.459548 0.872219 0.167241 0.055556 0.833333
0.368122 0.062500 -0.133985 -0.810327 0.506302 0.294931 0.055556 0.916667
0.352385 0.000000 -0.128257 -0.939665 0.000000 0.341990 0.055556 1.000000
0.352385 0.000000 -0.128257 -0.939665 0.000000 0.341990 0.055556 0.000000
0.368122 -0.062500 -0.133985 -0.810327 -0.506302 0.294931 0.055556 0.083333
0.411116 -0.108253 -0.149634 -0.459548 -0.872219 0.167241 0.055556 0.166667
0.469846 -0.125000 -0.171010 0.013489 -0.999878 -0.004913 0.055556 0.250000
0.528577 -0.108253 -0.192386 0.479812 -0.859798 -0.174627 0.055556 0.333333
0.571571 -0.062500 -0.208035 0.817072 -0.493851 -0.297372 0.055556 0.416667
0.541266 0.000000 -0.312500 0.866024 0.000000 -0.499985 0.083333 0.500000
0.526763 0.062500 -0.304126 0.753014 0.493851 -0.434736 0.083333 0.583333
0.487139 0.108253 -0.281250 0.442213 0.859798 -0.255287 0.083333 0.666667
0.433013 0.125000 -0.250000 0.012421 0.999878 -0.007172 0.083333 0.750000
0.378886 0.108253 -0.218750 -0.423536 0.872219 0.244514 0.083333 0.833333
0.339263 0.062500 -0.195873 -0.746788 0.506302 0.431166 0.083333 0.916667
0.324760 0.000000 -0.187500 -0.866024 0.000000 0.499985 0.083333 1.000000
0.324760 0.000000 -0.187500 -0.866024 0.000000 0.499985 0.083333 0.000000
0.339263 -0.062500 -0.195873 -0.746788 -0.506302 0.431166 0.083333 0.083333
0.378886 -0.108253 -0.218750 -0.423536 -0.872219 0.244514 0.083333 0.166667
0.433013 -0.125000 -0.250000 0.012421 -0.999878 -0.007172 0.083333 0.250000
0.487139 -0.108253 -0.281250 0.442213 -0.859798 -0.255287 0.083333 0.333333
0.526763 -0.062500 -0.304126 0.753014 -0.493851 -0.434736 0.083333 0.416667
0.478778 0.000000 -0.401742 0.766015 0.000000 -0.642781 0.111111 0.500000
0.465949 0.062500 -0.390978 0.666097 0.493851 -0.558916 0.111111 0.583333
0.430900 0.108253 -0.361568 0.391156 0.859798 -0.328196 0.111111 0.666667
0.383022 0.125000 -0.321394 0.010987 0.999878 -0.009217 0.111111 0.750000
0.335145 0.108253 -0.281220 -0.374645 0.872219 0.314341 0.111111 0.833333
0.300096 0.062500 -0.251810 -0.660573 0.506302 0.554277 0.111111 0.916667
0.287267 0.000000 -0.241045 -0.766015 0.000000 0.642781 0.111111 1.000000
0.287267 0.000000 -0.241045 -0.766015 0.000000 0.642781 0.111111 0.000000
0.300096 -0.062500 -0.251810 -0.660573 -0.506302 0.554277 0.111111 0.083333
0.335145 -0.108253 -0.281220 -0.374645 -0.872219 0.314341 0.111111 0.166667
0.383022 -0.125000 -0.321394 0.010987 -0.999878 -0.009217 0.111111 0.250000
0.430900 -0.108253 -0.361568 0.391156 -0.859798 -0.328196 0.111111 0.333333
0.465949 -0.062500 -0.390978 0.666097 -0.493851 -0.558916 0.111111 0.416667
0.401742 0.000000 -0.478778 0.642781 0.000000 -0.766015 0.138889 0.500000
0.390978 0.062500 -0.465949 0.558916 0.493851 -0.666097 0.138889 0.583333
0.361568 0.108253 -0.430900 0.328196 0.859798 -0.391156 0.138889 0.666667
0.321394 0.125000 -0.383022 0.009217 0.999878 -0.010987 0.138889 0.750000
0.281220 0.108253 -0.335144 -0.314341 0.872219 0.374645 0.138889 0.833333
0.251810 0.062500 -0.300096 -0.554277 0.506302 0.660573 0.138889 0.916667
0.241045 0.000000 -0.287267 -0.642781 0.000000 0.766015 0.138889 1.000000
0.241045 0.000000 -0.287267 -0.642781 0.000000 0.766015 0.138889 0.000000
0.251810 -0.062500 -0.300096 -0.554277 -0.506302 0.660573 0.138889 0.083333
0.281220 -0.108253 -0.335144 -0.314341 -0.872219 0.374645 0.138889 0.166667
0.321394 -0.125000 -0.383022 0.009217 -0.999878 -0.010987 0.138889 0.250000
0.361568 -0.108253 -0.430900 0.328196 -0.859798 -0.391156 0.138889 0.333333
0.390978 -0.062500 -0.465949 0.558916 -0.493851 -0.666097 0.138889 0.416667
0.312500 0.000000 -0.541266 0.499985 0.000000 -0.866024 0.166667 0.500000
0.304127 0.062500 -0.526763 0.434736 0.493851 -0.753014 0.166667 0.583333
0.281250 0.108253 -0.487139 0.255287 0.859798 -0.442213 0.166667 0.666667
0.250000 0.125000 -0.433013 0.007172 0.999878 -0.012421 0.166667 0.750000
0.218750 0.108253 -0.378886 -0.244514 0.872219 0.423536 0.166667 0.833333
0.195873 0.062500 -0.339263 -0.431166 0.506302 0.746788 0.166667 0.916667
0.187500 0.000000 -0.324760 -0.499985 0.000000 0.866024 0.166667 1.000000
0.187500 0.000000 -0.324760 -0.499985 0.000000 0.866024 0.166667 0.000000
0.195873 -0.062500 -0.339263 -0.431166 -0.506302 0.746788 0.166667 0.083333
0.218750 -0.108253 -0.378886 -0.244514 -0.872219 0.423536 0.166667 0.166667
0.250000 -0.125000 -0.433013 0.007172 -0.999878 -0.012421 0.166667 0.250000
0.281250 -0.108253 -0.487139 0.255287 -0.859798 -0.442213 0.166667 0.333333
0.304127 -0.062500 -0.526763 0.434736 -0.493851 -0.753014 0.166667 0.416667
0.213763 0.000000 -0.587308 0.341990 0.000000 -0.939665 0.194444 0.500000
0.208035 0.062500 -0.571571 0.297372 0.493851 -0.817072 0.194444 0.583333
0.192386 0.108253 -0.528577 0.174627 0.859798 -0.479812 0.194444 0.666667
0.171010 0.125000 -0.469846 0.004913 0.999878 -0.013489 0.194444 0.750000
0.149634 0.108253 -0.411116 -0.167241 0.872219 0.459548 0.194444 0.833333
0.133985 0.062500 -0.368122 -0.294931 0.506302 0.810327 0.194444 0.916667
0.128257 0.000000 -0.352385 -0.341990 0.000000 0.939665 0.194444 1.000000
0.128257 0.000000 -0.352385 -0.341990 0.000000 0.939665 0.194444 0.000000
0.133985 -0.062500 -0.368122 -0.294931 -0.506302 0.810327 0.194444 0.083333
0.149634 -0.108253 -0.411116 -0.167241 -0.872219 0.459548 0.194444 0.166667
0.171010 -0.125000 -0.469846 0.004913 -0.999878 -0.013489 0.194444 0.250000
0.192386 -0.108253 -0.528577 0.174627 -0.859798 -0.479812 0.194444 0.333333
0.208035 -0.062500 -0.571571 0.297372 -0.493851 -0.817072 0.194444 0.416667
0.108530 0.000000 -0.615505 0.173620 0.000000 -0.984802 0.222222 0.500000
0.105622 0.062500 -0.599012 0.150975 0.493851 -0.856319 0.222222 0.583333
0.097677 0.108253 -0.553954 0.088656 0.859798 -0.502853 0.222222 0.666667
0.086824 0.125000 -0.492404 0.002472 0.999878 -0.014130 0.222222 0.750000
0.075971 0.108253 -0.430853 -0.084902 0.872219 0.481613 0.222222 0.833333
0.068026 0.062500 -0.385795 -0.149724 0.506302 0.849239 0.222222 0.916667
0.065118 0.000000 -0.369303 -0.173620 0.000000 0.984802 0.222222 1.000000
0.065118 0.000000 -0.369303 -0.173620 0.000000 0.984802 0.222222 0.000000
0.068026 -0.062500 -0.385795 -0.149724 -0.506302 0.849239 0.222222 0.083333
0.075971 -0.108253 -0.430853 -0.084902 -0.872219 0.481613 0.222222 0.166667
0.086824 -0.125000 -0.492404 0.002472 -0.999878 -0.014130 0.222222 0.250000
0.097677 -0.108253 -0.553954 0.088656 -0.859798 -0.502853 0.222222 0.333333
0.105622 -0.062500 -0.599012 0.150975 -0.493851 -0.856319 0.222222 0.416667
-0.000000 0.000000 -0.625000 0.000000 0.000000 -0.999969 0.250000 0.500000
-0.000000 0.062500 -0.608253 0.000000 0.493851 -0.869503 0.250000 0.583333
-0.000000 0.108253 -0.562500 0.000000 0.859798 -0.510605 0.250000 0.666667
-0.000000 0.125000 -0.500000 0.000000 0.999878 -0.014374 0.250000 0.750000
-0.000000 0.108253 -0.437500 0.000000 0.872219 0.489059 0.250000 0.833333
-0.000000 0.062500 -0.391747 0.000000 0.506302 0.862331 0.250000 0.916667
-0.000000 0.000000 -0.375000 0.000000 0.000000 1.000000 0.250000 1.000000
-0.000000 0.000000 -0.375000 0.000000 0.000000 1.000000 0.250000 0.000000
-0.000000 -0.062500 -0.391747 0.000000 -0.506302 0.862331 0.250000 0.083333
-0.000000 -0.108253 -0.437500 0.000000 -0.872219 0.489059 0.250000 0.166667
-0.000000 -0.125000 -0.500000 0.000000 -0.999878 -0.014374 0.250000 0.250000
-0.000000 -0.108253 -0.562500 0.000000 -0.859798 -0.510605 0.250000 0.333333
-0.000000 -0.062500 -0.608253 0.000000 -0.493851 -0.869503 0.250000 0.416667
-0.108530 0.000000 -0.615505 -0.173620 0.000000 -0.984802 0.277778 0.500000
-0.105622 0.062500 -0.599012 -0.150975 0.493851 -0.856319 0.277778 0.583333
-0.097677 0.108253 -0.553954 -0.088656 0.859798 -0.502853 0.277778 0.666667
-0.086824 0.125000 -0.492404 -0.002472 0.999878 -0.014130 0.277778 0.750000
-0.075971 0.108253 -0.430853 0.084902 0.872219 0.481613 0.277778 0.833333
-0.068026 0.062500 -0.385795 0.149724 0.506302 0.849239 0.277778 0.916667
-0.065118 0.000000 -0.369303 0.173620 0.000000 0.984802 0.277778 1.000000
-0.065118 0.000000 -0.369303 0.173620 0.000000 0.984802 0.277778 0.000000
-0.068026 -0.062500 -0.385795 0.149724 -0.506302 0.849239 0.277778 0.083333
-0.075971 -0.108253 -0.430853 0.084902 -0.872219 0.481613 0.277778 0.166667
-0.086824 -0.125000 -0.492404 -0.002472 -0.999878 -0.014130 0.277778 0.250000
-0.097677 -0.108253 -0.553954 -0.088656 -0.859798 -0.502853 0.277778 0.333333
-0.105622 -0.062500 -0.599012 -0.150975 -0.493851 -0.856319 0.277778 0.416667
-0.213763 0.000000 -0.587308 -0.341990 0.000000 -0.939665 0.305556 0.500000
-0.208035 0.062500 -0.571571 -0.297372 0.493851 -0.817072 0.305556 0.583333
-0.192386 0.108253 -0.528577 -0.174627 0.859798 -0.479812 0.305556 0.666667
-0.171010 0.125000 -0.469846 -0.004913 0.999878 -0.013489 0.305556 0.750000
-0.149634 0.108253 -0.411116 0.167241 0.872219 0.459548 0.305556 0.833333
-0.133985 0.062500 -0.368122 0.294931 0.506302 0.810327 0.305556 0.916667
-0.128258 0.000000 -0.352385 0.341990 0.000000 0.939665 0.305556 1.000000
-0.128258 0.000000 -0.352385 0.341990 0.000000 0.939665 0.305556 0.000000
-0.133985 -0.062500 -0.368122 0.294931 -0.506302 0.810327 0.305556 0.083333
-0.149634 -0.108253 -0.411116 0.167241 -0.872219 0.459548 0.305556 0.166667
-0.171010 -0.125000 -0.469846 -0.004913 -0.999878 -0.013489 0.305556 0.250000
-0.192386 -0.108253 -0.528577 -0.174627 -0.859798 -0.479812 0.305556 0.333333
-0.208035 -0.062500 -0.571571 -0.297372 -0.493851 -0.817072 0.305556 0.416667
-0.312500 0.000000 -0.541266 -0.499985 0.000000 -0.866024 0.333333 0.500000
-0.304127 0.062500 -0.526763 -0.434736 0.493851 -0.753014 0.333333 0.583333
-0.281250 0.108253 -0.487139 -0.255287 0.859798 -0.442213 0.333333 0.666667
-0.250000 0.125000 -0.433013 -0.007172 0.999878 -0.012421 0.333333 0.750000
-0.218750 0.108253 -0.378886 0.244514 0.872219 0.423536 0.333333 0.833333
-0.195873 0.062500 -0.339263 0.431166 0.506302 0.746788 0.333333 0.916667
-0.187500 0.000000 -0.324760 0.499985 0.000000 0.866024 0.333333 1.000000
-0.187500 0.000000 -0.324760 0.499985 0.000000 0.866024 0.333333 0.000000
-0.195873 -0.062500 -0.339263 0.431166 -0.506302 0.746788 0.333333 0.083333
-0.218750 -0.108253 -0.378886 0.244514 -0.872219 0.423536 0.333333 0.166667
-0.250000 -0.125000 -0.433013 -0.007172 -0.999878 -0.012421 0.333333 0.250000
-0.281250 -0.108253 -0.487139 -0.255287 -0.859798 -0.442213 0.333333 0.333333
-0.304127 -0.062500 -0.526763 -0.434736 -0.493851 -0.753014 0.333333 0.416667
-0.401742 0.000000 -0.478778 -0.642781 0.000000 -0.766015 0.361111 0.500000
-0.390978 0.062500 -0.465949 -0.558916 0.493851 -0.666097 0.361111 0.583333
-0.361568 0.108253 -0.430900 -0.328196 0.859798 -0.391156 0.361111 0.666667
-0.321394 0.125000 -0.383022 -0.009217 0.999878 -0.010987 0.361111 0.750000
-0.281220 0.108253 -0.335144 0.314341 0.872219 0.374645 0.361111 0.833333
-0.251810 0.062500 -0.300095 0.554277 0.506302 0.660573 0.361111 0.916667
-0.241045 0.000000 -0.287267 0.642781 0.000000 0.766015 0.361111 1.000000
-0.241045 0.000000 -0.287267 0.642781 0.000000 0.766015 0.361111 0.000000
-0.251810 -0.062500 -0.300095 0.554277 -0.506302 0.660573 0.361111 0.083333
-0.281220 -0.108253 -0.335144 0.314341 -0.872219 0.374645 0.361111 0.166667
-0.321394 -0.125000 -0.383022 -0.009217 -0.999878 -0.010987 0.361111 0.250000
-0.361568 -0.108253 -0.430900 -0.328196 -0.859798 -0.391156 0.361111 0.333333
-0.390978 -0.062500 -0.465949 -0.558916 -0.493851 -0.666097 0.361111 0.416667
-0.478778 0.000000 -0.401742 -0.766015 0.000000 -0.642781 0.388889 0.500000
-0.465949 0.062500 -0.390978 -0.666097 0.493851 -0.558916 0.388889 0.583333
-0.430900 0.108253 -0.361568 -0.391156 0.859798 -0.328196 0.388889 0.666667
-0.383022 0.125000 -0.321394 -0.010987 0.999878 -0.009217 0.388889 0.750000
-0.335144 0.108253 -0.281220 0.374645 0.872219 0.314341 0.388889 0.833333
-0.300095 0.062500 -0.251810 0.660573 0.506302 0.554277 0.388889 0.916667
-0.287267 0.000000 -0.241045 0.766015 0.000000 0.642781 0.388889 1.000000
-0.287267 0.000000 -0.241045 0.766015 0.000000 0.642781 0.388889 0.000000
-0.300095 -0.062500 -0.251810 0.660573 -0.506302 0.554277 0.388889 0.083333
-0.335144 -0.108253 -0.281220 0.374645 -0.872219 0.314341 0.388889 0.166667
-0.383022 -0.125000 -0.321394 -0.010987 -0.999878 -0.009217 0.388889 0.250000
-0.430900 -0.108253 -0.361568 -0.391156 -0.859798 -0.328196 0.388889 0.333333
-0.465949 -0.062500 -0.390978 -0.666097 -0.493851 -0.558916 0.388889 0.416667
-0.541266 0.000000 -0.312500 -0.866024 0.000000 -0.499985 0.416667 0.500000
-0.526763 0.062500 -0.304127 -0.753014 0.493851 -0.434736 0.416667 0.583333
-0.487139 0.108253 -0.281250 -0.442213 0.859798 -0.255287 0.416667 0.666667
-0.433013 0.125000 -0.250000 -0.012421 0.999878 -0.007172 0.416667 0.750000
-0.378886 0.108253 -0.218750 0.423536 0.872219 0.244514 0.416667 0.833333
-0.339263 0.062500 -0.195873 0.746788 0.506302 0.431166 0.416667 0.916667
-0.324759 0.000000 -0.187500 0.866024 0.000000 0.499985 0.416667 1.000000
-0.324759 0.000000 -0.187500 0.866024 0.000000 0.499985 0.416667 0.000000
-0.339263 -0.062500 -0.195873 0.746788 -0.506302 0.431166 0.416667 0.083333
-0.378886 -0.108253 -0.218750 0.423536 -0.872219 0.244514 0.416667 0.166667
-0.433013 -0.125000 -0.250000 -0.012421 -0.999878 -0.007172 0.416667 0.250000
-0.487139 -0.108253 -0.281250 -0.442213 -0.859798 -0.255287 0.416667 0.333333
-0.526763 -0.062500 -0.304127 -0.753014 -0.493851 -0.434736 0.416667 0.416667
-0.587308 0.000000 -0.213763 -0.939665 0.000000 -0.341990 0.444444 0.500000
-0.571571 0.062500 -0.208035 -0.817072 0.493851 -0.297372 0.444444 0.583333
-0.528577 0.108253 -0.192386 -0.479812 0.859798 -0.174627 0.444444 0.666667
-0.469846 0.125000 -0.171010 -0.013489 0.999878 -0.004913 0.444444 0.750000
-0.411115 0.108253 -0.149634 0.459548 0.872219 0.167241 0.444444 0.833333
-0.368122 0.062500 -0.133985 0.810327 0.506302 0.294931 0.444444 0.916667
-0.352385 0.000000 -0.128258 0.939665 0.000000 0.341990 0.444444 1.000000
-0.352385 0.000000 -0.128258 0.939665 0.000000 0.341990 0.444444 0.000000
-0.368122 -0.062500 -0.133985 0.810327 -0.506302 0.294931 0.444444 0.083333
-0.411115 -0.108253 -0.149634 0.459548 -0.872219 0.167241 0.444444 0.166667
-0.469846 -0.125000 -0.171010 -0.013489 -0.999878 -0.004913 0.444444 0.250000
-0.528577 -0.108253 -0.192386 -0.479812 -0.859798 -0.174627 0.444444 0.333333
-0.571571 -0.062500 -0.208035 -0.817072 -0.493851 -0.297372 0.444444 0.416667
-0.615505 0.000000 -0.108530 -0.984802 0.000000 -0.173620 0.472222 0.500000
-0.599012 0.062500 -0.105622 -0.856319 0.493851 -0.150975 0.472222 0.583333
-0.553954 0.108253 -0.097677 -0.502853 0.859798 -0.088656 0.472222 0.666667
-0.492404 0.125000 -0.086824 -0.014130 0.999878 -0.002472 0.472222 0.750000
-0.430853 0.108253 -0.075971 0.481613 0.872219 0.084902 0.472222 0.833333
-0.385795 0.062500 -0.068026 0.849239 0.506302 0.149724 0.472222 0.916667
-0.369303 0.000000 -0.065118 0.984802 0.000000 0.173620 0.472222 1.000000
-0.369303 0.000000 -0.065118 0.984802 0.000000 0.173620 0.472222 0.000000
-0.385795 -0.062500 -0.068026 0.849239 -0.506302 0.149724 0.472222 0.083333
-0.430853 -0.108253 -0.075971 0.481613 -0.872219 0.084902 0.472222 0.166667
-0.492404 -0.125000 -0.086824 -0.014130 -0.999878 -0.002472 0.472222 0.250000
-0.553954 -0.108253 -0.097677 -0.502853 -0.859798 -0.088656 0.472222 0.333333
-0.599012 -0.062500 -0.105622 -0.856319 -0.493851 -0.150975 0.472222 0.416667
4 0 1 2 3
4 3 2 4 5
4 5 4 6 7
4 7 6 8 9
4 9 8 10 11
4 11 10 12 13
4 14 15 16 17
4 17 16 18 19
4 19 18 20 21
4 21 20 22 23
4 23 22 24 25
4 26 27 28 29
4 1 30 31 2
4 2 31 32 4
4 4 32 33 6
4 6 33 34 8
4 8 34 35 10
4 10 35 36 12
4 15 37 38 16
4 16 38 39 18
4 18 39 40 20
4 20 40 41 22
4 22 41 42 24
4 24 42 30 1
4 30 43 44 31
4 31 44 45 32
4 32 45 46 33
4 33 46 47 34
4 34 47 48 35
4 35 48 49 36
4 37 50 51 38
4 38 51 52 39
4 39 52 53 40
4 40 53 54 41
4 41 54 55 42
4 42 55 43 30
4 43 56 57 44
4 44 57 58 45
4 45 58 59 46
4 46 59 60 47
4 47 60 61 48
4 48 61 62 49
4 50 63 64 51
4 51 64 65 52
4 52 65 66 53
4 53 66 67 54
4 54 67 68 55
4 55 68 56 43
4 56 69 70 57
4 57 70 71 58
4 58 71 72 59
4 59 72 73 60
4 60 73 74 61
4 61 74 75 62
4 63 76 77 64
4 64 77 78 65
4 65 78 79 66
4 66 79 80 67
4 67 80 81 68
4 68 81 69 56
4 69 82 83 70
4 70 83 84 71
4 71 84 85 72
4 72 85 86 73
4 73 86 87 74
4 74 87 88 75
4 76 89 90 77
4 77 90 91 78
4 78 91 92 79
4 79 92 93 80
4 80 93 94 81
4 81 94 82 69
4 82 95 96 83
4 83 96 97 84
4 84 97 98 85
4 85 98 99 86
4 86 99 100 87
4 87 100 101 88
4 89 102 103 90
4 90 103 104 91
4 91 104 105 92
4 92 105 106 93
4 93 106 107 94
4 94 107 95 82
4 95 108 109 96
4 96 109 110 97
4 97 110 111 98
4 98 111 112 99
4 99 112 113 100
4 100 113 114 101
4 102 115 116 103
4 103 116 117 104
4 104 117 118 105
4 105 118 119 106
4 106 119 120 107
4 107 120 108 95
4 108 121 122 109
4 109 122 123 110
4 110 123 124 111
4 111 124 125 112
4 112 125 126 113
4 113 126 127 114
4 115 128 129 116
4 116 129 130 117
4 117 130 131 118
4 118 131 132 119
4 119 132 133 120
4 120 133 121 108
4 121 134 135 122
4 122 135 136 123
4 123 136 137 124
4 124 137 138 125
4 125 138 139 126
4 126 139 140 127
4 128 141 142 129
4 129 142 143 130
4 130 143 144 131
4 131 144 145 132
4 132 145 146 133
4 133 146 134 121
4 134 147 148 135
4 135 148 149 136
4 136 149 150 137
4 137 150 151 138
4 138 151 152 139
4 139 152 153 140
4 141 154 155 142
4 142 155 156 143
4 143 156 157 144
4 144 157 158 145
4 145 158 159 146
4 146 159 147 134
4 147 160 161 148
4 148 161 162 149
4 149 162 163 150
4 150 163 164 151
4 151 164 165 152
4 152 165 166 153
4 154 167 168 155
4 155 168 169 156
4 156 169 170 157
4 157 170 171 158
4 158 171 172 159
4 159 172 160 147
4 160 173 174 161
4 161 174 175 162
4 162 175 176 163
4 163 176 177 164
4 164 177 178 165
4 165 178 179 166
4 167 180 181 168
4 168 181 182 169
4 169 182 183 170
4 170 183 184 171
4 171 184 185 172
4 172 185 173 160
4 173 186 187 174
4 174 187 188 175
4 175 188 189 176
4 176 189 190 177
4 177 190 191 178
4 178 191 192 179
4 180 193 194 181
4 181 194 195 182
4 182 195 196 183
4 183 196 197 184
4 184 197 198 185
4 185 198 186 173
4 186 199 200 187
4 187 200 201 188
4 188 201 202 189
4 189 202 203 190
4 190 203 204 191
4 191 204 205 192
4 193 206 207 194
4 194 207 208 195
4 195 208 209 196
4 196 209 210 197
4 197 210 211 198
4 198 211 199 186
4 199 212 213 200
4 200 213 214 201
4 201 214 215 202
4 202 215 216 203
4 203 216 217 204
4 204 217 218 205
4 206 219 220 207
4 207 220 221 208
4 208 221 222 209
4 209 222 223 210
4 210 223 224 211
4 211 224 212 199
4 212 225 226 213
4 213 226 227 214
4 214 227 228 215
4 215 228 229 216
4 216 229 230 217
4 217 230 231 218
4 219 232 233 220
4 220 233 234 221
4 221 234 235 222
4 222 235 236 223
4 223 236 237 224
4 224 237 225 212
4 225 238 239 226
4 226 239 240 227
4 227 240 241 228
4 228 241 242 229
4 229 242 243 230
4 230 243 244 231
4 232 245 246 233
4 233 246 247 234
4 234 247 248 235
4 235 248 249 236
4 236 249 250 237
4 237 250 238 225
4 251 252 253 254
4 254 253 255 256
4 256 255 257 258
4 258 257 259 260
4 260 259 261 262
4 262 261 263 264
4 265 266 267 268
4 268 267 269 270
4 270 269 271 272
4 272 271 273 274
4 274 273 275 276
4 276 275 252 251
4 252 277 278 253
4 253 278 279 255
4 255 279 280 257
4 257 280 281 259
4 259 281 282 261
4 261 282 283 263
4 266 284 285 267
4 267 285 286 269
4 269 286 287 271
4 271 287 288 273
4 273 288 289 275
4 275 289 277 252
4 277 290 291 278
4 278 291 292 279
4 279 292 293 280
4 280 293 294 281
4 281 294 295 282
4 282 295 296 283
4 284 297 298 285
4 285 298 299 286
4 286 299 300 287
4 287 300 301 288
4 288 301 302 289
4 289 302 290 277
4 290 303 304 291
4 291 304 305 292
4 292 305 306 293
4 293 306 307 294
4 294 307 308 295
4 295 308 309 296
4 297 310 311 298
4 298 311 312 299
4 299 312 313 300
4 300 313 314 301
4 301 314 315 302
4 302 315 303 290
4 303 316 317 304
4 304 317 318 305
4 305 318 319 306
4 306 319 320 307
4 307 320 321 308
4 308 321 322 309
4 310 323 324 311
4 311 324 325 312
4 312 325 326 313
4 313 326 327 314
4 314 327 328 315
4 315 328 316 303
4 316 329 330 317
4 317 330 331 318
4 318 331 332 319
4 319 332 333 320
4 320 333 334 321
4 321 334 335 322
4 323 336 337 324
4 324 337 338 325
4 325 338 339 326
4 326 339 340 327
4 327 340 341 328
4 328 341 329 316
4 329 342 343 330
4 330 343 344 331
4 331 344 345 332
4 332 345 346 333
4 333 346 347 334
4 334 347 348 335
4 336 349 350 337
4 337 350 351 338
4 338 351 352 339
4 339 352 353 340
4 340 353 354 341
4 341 354 342 329
4 342 355 356 343
4 343 356 357 344
4 344 357 358 345
4 345 358 359 346
4 346 359 360 347
4 347 360 361 348
4 349 362 363 350
4 350 363 364 351
4 351 364 365 352
4 352 365 366 353
4 353 366 367 354
4 354 367 355 342
4 355 368 369 356
4 356 369 370 357
4 357 370 371 358
4 358 371 372 359
4 359 372 373 360
4 360 373 374 361
4 362 375 376 363
4 363 376 377 364
4 364 377 378 365
4 365 378 379 366
4 366 379 380 367
4 367 380 368 355
4 368 381 382 369
4 369 382 383 370
4 370 383 384 371
4 371 384 385 372
4 372 385 386 373
4 373 386 387 374
4 375 388 389 376
4 376 389 390 377
4 377 390 391 378
4 378 391 392 379
4 379 392 393 380
4 380 393 381 368
4 381 394 395 382
4 382 395 396 383
4 383 396 397 384
4 384 397 398 385
4 385 398 399 386
4 386 399 400 387
4 388 401 402 389
4 389 402 403 390
4 390 403 404 391
4 391 404 405 392
4 392 405 406 393
4 393 406 394 381
4 394 407 408 395
4 395 408 409 396
4 396 409 410 397
4 397 410 411 398
4 398 411 412 399
4 399 412 413 400
4 401 414 415 402
4 402 415 416 403
4 403 416 417 404
4 404 417 418 405
4 405 418 419 406
4 406 419 407 394
4 407 420 421 408
4 408 421 422 409
4 409 422 423 410
4 410 423 424 411
4 411 424 425 412
4 412 425 426 413
4 414 427 428 415
4 415 428 429 416
4 416 429 430 417
4 417 430 431 418
4 418 431 432 419
4 419 432 420 407
4 420 433 434 421
4 421 434 435 422
4 422 435 436 423
4 423 436 437 424
4 424 437 438 425
4 425 438 439 426
4 427 440 441 428
4 428 441 442 429
4 429 442 443 430
4 430 443 444 431
4 431 444 445 432
4 432 445 433 420
4 433 446 447 434
4 434 447 448 435
4 435 448 449 436
4 436 449 450 437
4 437 450 451 438
4 438 451 452 439
4 440 453 454 441
4 441 454 455 442
4 442 455 456 443
4 443 456 457 444
4 444 457 458 445
4 445 458 446 433
4 446 459 460 447
4 447 460 461 448
4 448 461 462 449
4 449 462 463 450
4 450 463 464 451
4 451 464 465 452
4 453 466 467 454
4 454 467 468 455
4 455 468 469 456
4 456 469 470 457
4 457 470 471 458
4 458 471 459 446
4 459 472 473 460
4 460 473 474 461
4 461 474 475 462
4 462 475 476 463
4 463 476 477 464
4 464 477 478 465
4 466 479 480 467
4 467 480 481 468
4 468 481 482 469
4 469 482 483 470
4 470 483 484 471
4 471 484 472 459
4 472 0 3 473
4 473 3 5 474
4 474 5 7 475
4 475 7 9 476
4 476 9 11 477
4 477 11 13 478
4 479 14 17 480
4 480 17 19 481
4 481 19 21 482
4 482 21 23 483
4 483 23 25 484
4 0 472 484 25
